<?xml version="1.0" encoding="UTF-8"?>
<svg version="1.1" xmlns="http://www.w3.org/2000/svg" width="512" height="512">
<path d="M0 0 C1.01555969 0.00747757 1.01555969 0.00747757 2.05163574 0.0151062 C29.62770864 0.25266293 55.67685471 8.98422701 76.5625 27.375 C77.78839844 28.40367188 77.78839844 28.40367188 79.0390625 29.453125 C97.86949434 45.66012206 109.88304117 67.28893143 115.5625 91.375 C115.75215332 92.10283691 115.94180664 92.83067383 116.13720703 93.58056641 C117.50372641 99.61302259 117.60330411 105.24029649 117.3359375 111.375 C117.30612793 112.18290482 117.27631836 112.99080963 117.24560547 113.82319641 C117.11947471 117.18982692 116.99270834 120.5524116 116.76708984 123.9140625 C115.79668304 134.53231649 115.79668304 134.53231649 120.10693359 143.78540039 C122.13762008 145.74940571 124.19220849 147.31985761 126.48339844 149.00805664 C139.53751573 159.04291766 146.81986566 178.62992889 149.5625 194.375 C150.49451677 209.07772526 150.35757565 223.35566237 145.5625 237.375 C145.2325 238.365 144.9025 239.355 144.5625 240.375 C145.43390625 240.53355469 146.3053125 240.69210937 147.203125 240.85546875 C165.92548708 244.52294444 181.71351592 252.6355143 192.828125 268.63671875 C202.89725537 284.74138551 205.44587383 303.36723128 201.5 321.9375 C198.03448486 333.13997917 191.82950978 342.19501137 183.5625 350.375 C182.97210938 350.99890625 182.38171875 351.6228125 181.7734375 352.265625 C177.57333149 356.37321766 172.81524524 359.03626824 167.625 361.6875 C166.96878662 362.02539551 166.31257324 362.36329102 165.63647461 362.71142578 C157.298809 366.77983581 149.25231767 367.67391885 140.05859375 367.5703125 C139.0947023 367.5674826 138.13081085 367.56465271 137.13771057 367.56173706 C134.09167494 367.55063848 131.04594514 367.52555364 128 367.5 C125.92122824 367.48995684 123.84245182 367.48083334 121.76367188 367.47265625 C116.69649869 367.45073305 111.629551 367.41627556 106.5625 367.375 C106.58062744 368.16438965 106.59875488 368.9537793 106.61743164 369.76708984 C106.80024489 383.43316345 103.33765829 394.04971258 93.90625 404.1484375 C84.32085986 413.05561607 72.36553858 416.00196613 59.578125 415.69140625 C48.23549105 415.05264812 38.1547546 408.78860668 30.453125 400.73828125 C23.27177091 391.76158863 19.84859428 380.79749148 20.5625 369.375 C20.8925 368.715 21.2225 368.055 21.5625 367.375 C-28.9275 367.375 -79.4175 367.375 -131.4375 367.375 C-130.4475 370.345 -129.4575 373.315 -128.4375 376.375 C-125.75252176 386.38264617 -127.94357836 397.0598824 -132.6875 406.125 C-139.50633309 417.31436112 -148.69829095 424.15009665 -161.4375 427.375 C-164.55577312 427.80366371 -167.60482407 427.90022609 -170.75 427.875 C-171.57669189 427.87000488 -172.40338379 427.86500977 -173.25512695 427.85986328 C-185.82422564 427.50428445 -195.55347068 421.6342246 -204.125 412.75 C-210.31911827 405.40777285 -213.54875108 395.82836369 -213.6875 386.3125 C-213.71328125 385.26964844 -213.7390625 384.22679687 -213.765625 383.15234375 C-213.32029286 378.02572255 -211.90966696 373.29166017 -210.4375 368.375 C-211.14132813 368.3656543 -211.84515625 368.35630859 -212.5703125 368.34667969 C-241.78330368 367.86043212 -263.84202899 362.12137343 -285.5625 341.75 C-301.39200116 325.28426487 -310.08441913 303.9598661 -309.875 281.125 C-309.86597656 279.94059326 -309.85695313 278.75618652 -309.84765625 277.53588867 C-309.3705494 253.30449299 -298.81225542 232.80793462 -281.4921875 216.015625 C-267.29945482 203.3026592 -249.19354348 196.442921 -230.4375 194.375 C-230.47230469 193.31925781 -230.50710937 192.26351562 -230.54296875 191.17578125 C-231.35329057 155.61527652 -220.03584319 123.96605662 -195.796875 97.8046875 C-172.83362887 74.15710622 -142.52237492 60.23172619 -109.43359375 59.1953125 C-106.75874011 59.18899643 -104.10766306 59.22573623 -101.4375 59.375 C-101.17066406 58.64667969 -100.90382812 57.91835937 -100.62890625 57.16796875 C-96.88347488 48.38769521 -89.90247156 41.23602387 -83.4375 34.375 C-82.89738281 33.77042969 -82.35726562 33.16585937 -81.80078125 32.54296875 C-61.26705498 10.45757551 -29.48422458 -0.32224202 0 0 Z " fill="#2B92EB" transform="translate(309.4375,84.625)"/>
<path d="M0 0 C1.01555969 0.00747757 1.01555969 0.00747757 2.05163574 0.0151062 C29.62770864 0.25266293 55.67685471 8.98422701 76.5625 27.375 C77.78839844 28.40367188 77.78839844 28.40367188 79.0390625 29.453125 C100.42842764 47.86254763 114.08991854 74.3786468 117.5625 102.375 C117.77904279 106.95970211 117.8103522 111.53187263 117.76831055 116.11987305 C117.74987351 118.20178329 117.74780288 120.28325031 117.74804688 122.36523438 C117.72694051 128.13758851 117.64928158 133.68308313 116.5625 139.375 C112.45105477 138.68460694 109.08605215 136.56761415 105.5 134.5625 C92.67920319 127.57244618 80.69532213 124.00483008 66.0625 124.1875 C64.59103516 124.1884668 64.59103516 124.1884668 63.08984375 124.18945312 C45.32817698 124.29588122 31.54714482 129.12091702 16.5625 138.375 C14.89662625 139.37632034 13.23025976 140.37682408 11.5625 141.375 C11.06621094 140.27542969 10.56992187 139.17585937 10.05859375 138.04296875 C4.23203057 125.29302656 -2.38996807 114.1441982 -11.4375 103.375 C-12.02917969 102.63636719 -12.62085938 101.89773437 -13.23046875 101.13671875 C-35.62228257 74.25699341 -69.06524236 64.15020131 -102.4375 60.375 C-90.56525241 35.44328006 -67.02210475 16.68629107 -41.55078125 6.80859375 C-27.81614028 2.00075182 -14.54410287 -0.15895691 0 0 Z " fill="#FEC91B" transform="translate(309.4375,84.625)"/>
<path d="M0 0 C2.33685174 2.16493077 3.9164569 4.31740202 5.49609375 7.078125 C5.96611816 7.89732422 6.43614258 8.71652344 6.92041016 9.56054688 C7.67136963 10.89182617 7.67136963 10.89182617 8.4375 12.25 C8.9639209 13.17876953 9.4903418 14.10753906 10.03271484 15.06445312 C48.22266387 82.93247546 48.22266387 82.93247546 41.97265625 106.04296875 C38.40941002 116.8758097 31.56454598 124.91181941 21.8203125 130.67578125 C14.8124545 133.96617441 8.43674666 135.56215334 0.6875 135.5 C-0.13919189 135.49500488 -0.96588379 135.49000977 -1.81762695 135.48486328 C-14.38672564 135.12928445 -24.11597068 129.2592246 -32.6875 120.375 C-40.7937055 110.76627129 -42.77045144 99.1483682 -42 87 C-39.88457266 75.13183045 -33.80331853 64.32501151 -28.625 53.5625 C-28.32375214 52.9362674 -28.02250427 52.31003479 -27.71212769 51.66482544 C-19.21088753 34.04183902 -9.93999279 16.85525716 0 0 Z " fill="#79CFFE" transform="translate(138,377)"/>
<path d="M0 0 C3.23452833 2.96557315 5.28448664 5.92951783 7.390625 9.76953125 C8.01372559 10.8980249 8.63682617 12.02651855 9.27880859 13.18920898 C9.93623932 14.39677297 10.59329589 15.60454071 11.25 16.8125 C11.92878319 18.05109072 12.60798432 19.28945248 13.28759766 20.52758789 C14.61368288 22.94673272 15.93528893 25.36823808 17.25292969 27.79199219 C18.63990749 30.33879045 20.03739798 32.87882749 21.4453125 35.4140625 C47.328765 82.37772297 47.328765 82.37772297 41.4375 104.625 C37.17079424 117.16971589 29.29725835 125.162537 17.625 130.921875 C7.69307076 135.00106022 -3.760799 135.84473833 -14 132.3125 C-25.94669251 127.18738677 -34.28162821 119.94577127 -39.8125 108.02734375 C-43.81411253 97.82586443 -43.71293315 88.83431254 -40.1875 78.5625 C-39.87619141 77.64927979 -39.56488281 76.73605957 -39.24414062 75.79516602 C-31.00547488 52.37886196 -17.85188607 17.85188607 0 0 Z " fill="#79CFFE" transform="translate(373,366)"/>
<path d="M0 0 C0.66 0 1.32 0 2 0 C47.46643555 80.71493854 47.46643555 80.71493854 42.34375 103.98046875 C38.72884712 115.0277366 31.83557937 123.81885941 22 130 C9.80328091 135.64814508 -1.98351285 136.72113876 -14.7890625 132.38671875 C-26.39938091 127.37253014 -34.37178154 118.64886072 -39.2734375 107.140625 C-43.58433013 94.43971553 -40.97564943 81.98666205 -36 70 C-35.71012207 69.29375488 -35.42024414 68.58750977 -35.12158203 67.85986328 C-25.34289448 44.40641266 -12.86949004 21.87121985 0 0 Z " fill="#78CFFE" transform="translate(255,304)"/>
<path d="M0 0 C3.98315518 2.39092249 7.13381942 5.39046904 10.38769531 8.67919922 C11.29439972 9.58159836 11.29439972 9.58159836 12.21942139 10.50222778 C13.48688232 11.76765944 14.75061181 13.03683863 16.01074219 14.30957031 C17.93264155 16.2475668 19.87006834 18.16899332 21.80957031 20.08935547 C23.04490854 21.32667578 24.27931602 22.5649262 25.51269531 23.80419922 C26.0877179 24.37314911 26.66274048 24.942099 27.25518799 25.52828979 C31.49119227 29.83878391 34.40738801 33.74127984 35.05957031 39.93701172 C34.52819251 44.80797489 32.82341969 47.09761999 29.62207031 50.68701172 C25.39858079 53.11327166 21.41332516 53.60464934 16.68457031 52.37451172 C9.35188292 48.22130352 3.45170021 41.44696283 -2.43530273 35.51538086 C-4.13467055 33.80522808 -5.84455314 32.10610921 -7.55566406 30.40771484 C-8.64940537 29.31265292 -9.74252665 28.21697128 -10.83496094 27.12060547 C-11.34122513 26.61838974 -11.84748932 26.11617401 -12.36909485 25.59873962 C-16.55655802 21.35563737 -19.73138781 17.61519291 -19.87792969 11.49951172 C-19.74635925 6.60947709 -18.24173842 4.13668754 -14.92089844 0.65185547 C-10.40691936 -2.93955855 -4.90513496 -2.4048887 0 0 Z " fill="#FFDB5D" transform="translate(182.3154296875,56.62548828125)"/>
<path d="M0 0 C4.36045847 2.22136563 7.13277421 4.43567029 9 9 C9.68830951 15.19478558 8.78244519 18.04532539 5 23 C2.79705281 25.46491326 0.46769479 27.78961293 -1.8828125 30.11328125 C-2.53829071 30.76830124 -3.19376892 31.42332123 -3.86911011 32.09819031 C-5.24679535 33.47286929 -6.6268953 34.84513212 -8.00927734 36.21508789 C-10.1305067 38.31795905 -12.24352307 40.42882488 -14.35546875 42.54101562 C-15.69744395 43.87807879 -17.03987585 45.21468376 -18.3828125 46.55078125 C-19.01615509 47.18301102 -19.64949768 47.81524078 -20.30203247 48.46662903 C-20.8895932 49.04780991 -21.47715393 49.62899078 -22.08251953 50.2277832 C-22.85718063 50.99672661 -22.85718063 50.99672661 -23.64749146 51.78120422 C-26.87655621 54.69103463 -30.30645391 54.32710234 -34.453125 54.28515625 C-38.16066516 53.87004823 -40.25861356 52.4672478 -43 50 C-45.75236694 45.47345925 -45.87561561 41.13986831 -45 36 C-43.87744141 34.20751953 -43.87744141 34.20751953 -42.2890625 32.5078125 C-41.65395752 31.82396484 -41.01885254 31.14011719 -40.36450195 30.43554688 C-39.58421631 29.63181641 -38.80393066 28.82808594 -38 28 C-37.53242279 27.516521 -37.06484558 27.03304199 -36.58309937 26.53491211 C-33.27889493 23.12661803 -29.9401094 19.75433959 -26.58325195 16.39794922 C-24.80064873 14.61313402 -23.02623305 12.82042884 -21.25195312 11.02734375 C-20.11246822 9.88492866 -18.97251115 8.74298428 -17.83203125 7.6015625 C-17.30591751 7.06826324 -16.77980377 6.53496399 -16.23774719 5.98550415 C-11.18952201 0.96848909 -7.25484888 -1.13225965 0 0 Z " fill="#FFDB5F" transform="translate(448,55)"/>
<path d="M0 0 C0.92130707 -0.0127597 1.84261414 -0.02551941 2.7918396 -0.03866577 C3.78043976 -0.04089142 4.76903992 -0.04311707 5.78759766 -0.04541016 C6.81092194 -0.05206696 7.83424622 -0.05872375 8.88858032 -0.06558228 C11.05216679 -0.07570164 13.21578442 -0.08039952 15.37939453 -0.08007812 C18.68265457 -0.08444752 21.98457429 -0.12076525 25.28759766 -0.15869141 C27.39175976 -0.16456051 29.4959282 -0.16852927 31.60009766 -0.17041016 C33.0769252 -0.19196671 33.0769252 -0.19196671 34.58358765 -0.21395874 C40.50149913 -0.1747026 43.789728 0.40729395 48.32666016 4.29052734 C51.08721319 7.19698699 51.75794714 9.17677352 51.76416016 13.16552734 C51.61707434 17.91429791 50.56976129 20.68708164 47.32666016 24.29052734 C44.30676631 26.16139967 41.99642387 26.54918022 38.46972656 26.58105469 C37.50837799 26.59381439 36.54702942 26.6065741 35.55654907 26.61972046 C34.0080275 26.62305893 34.0080275 26.62305893 32.42822266 26.62646484 C30.8266481 26.63645004 30.8266481 26.63645004 29.19271851 26.64663696 C26.93497438 26.65675786 24.67720038 26.66145416 22.41943359 26.66113281 C18.97133897 26.66550241 15.52452806 26.70181955 12.07666016 26.73974609 C9.88135203 26.7456151 7.68603783 26.74958393 5.49072266 26.75146484 C4.4624234 26.76583588 3.43412415 26.78020691 2.37466431 26.79501343 C-3.62499524 26.75686187 -7.10556993 26.29614614 -11.67333984 22.29052734 C-14.5792928 18.09584743 -14.43902213 13.19398765 -13.67333984 8.29052734 C-10.76734292 2.61746563 -6.20552531 0.05855218 0 0 Z " fill="#FFC43B" transform="translate(460.67333984375,188.70947265625)"/>
<path d="M0 0 C3.51814311 2.81624756 5.81290746 5.74795744 6.35336304 10.24447632 C6.36098663 11.05244659 6.36861023 11.86041687 6.37646484 12.69287109 C6.3956044 14.0748317 6.3956044 14.0748317 6.41513062 15.48471069 C6.41735626 16.47331085 6.41958191 17.46191101 6.421875 18.48046875 C6.4285318 19.50379303 6.4351886 20.52711731 6.44204712 21.58145142 C6.45216649 23.74503788 6.45686436 25.90865552 6.45654297 28.07226562 C6.46091236 31.37552566 6.49723009 34.67744538 6.53515625 37.98046875 C6.54102535 40.08463086 6.54499412 42.1887993 6.546875 44.29296875 C6.56124603 45.27752045 6.57561707 46.26207214 6.59042358 47.27645874 C6.55116744 53.19437022 5.9691709 56.48259909 2.0859375 61.01953125 C-0.82052214 63.78008429 -2.80030868 64.45081824 -6.7890625 64.45703125 C-11.53783307 64.30994544 -14.3106168 63.26263238 -17.9140625 60.01953125 C-19.78493482 56.9996374 -20.17271538 54.68929496 -20.20458984 51.16259766 C-20.21734955 50.20124908 -20.23010925 49.23990051 -20.24325562 48.24942017 C-20.24548126 47.21707245 -20.24770691 46.18472473 -20.25 45.12109375 C-20.2566568 44.05337738 -20.2633136 42.98566101 -20.27017212 41.8855896 C-20.28029302 39.62784548 -20.28498931 37.37007147 -20.28466797 35.11230469 C-20.28903756 31.66421006 -20.3253547 28.21739915 -20.36328125 24.76953125 C-20.36915025 22.57422312 -20.37311909 20.37890892 -20.375 18.18359375 C-20.38937103 17.15529449 -20.40374207 16.12699524 -20.41854858 15.0675354 C-20.38039703 9.06787586 -19.91968129 5.58730116 -15.9140625 1.01953125 C-11.49099547 -2.04464169 -4.80377051 -2.46070694 0 0 Z " fill="#FFE46E" transform="translate(316.9140625,0.98046875)"/>
</svg>
